<svg xmlns="http://www.w3.org/2000/svg" width="2000" height="2000" viewBox="0 0 2000 2000"><defs><style>.cls-1{fill:#8a5acd;}</style></defs><title>logo np</title><g id="Layer_3" data-name="Layer 3"><path class="cls-1" d="M945.14,343.93c-449.47,0-813.84,364.37-813.84,813.84v498.3h923.56c449.47,0,813.84-364.37,813.84-813.84V343.93Zm5.34,797.17a96.9,96.9,0,0,1-96.9,96.9h-64.7a15.75,15.75,0,0,1-15.75-15.74V935.56c0-19.91-1.13-42.76-9.48-61.23a54.54,54.54,0,0,0-15.08-19.13c-10-7.86-23-11.69-39.65-11.69-30.93,0-54.86,10.63-62.47,27.75-8.69,18.59-8.69,44-8.69,64.3V1141.1a96.9,96.9,0,0,1-96.9,96.9H476.14a15.74,15.74,0,0,1-15.74-15.74V716.54a15.74,15.74,0,0,1,15.74-15.74H611.93a15.74,15.74,0,0,1,15.74,15.74v7.31a4.28,4.28,0,0,0,6.69,3.55c121-83.28,238.78,9.19,240,10.17a137.11,137.11,0,0,1,12.1,10.62l0,0c54.76,55.07,64,99.7,64,178.9Zm366.78,113.76a287.37,287.37,0,0,1-136.74-34.45,7.59,7.59,0,0,0-11.24,6.65v91.64a96.9,96.9,0,0,1-96.9,96.9h-54.63a15.75,15.75,0,0,1-15.75-15.74V716.49a15.75,15.75,0,0,1,15.75-15.75h135.78a15.75,15.75,0,0,1,15.75,15.75v3.75a7.51,7.51,0,0,0,11.11,6.57,287.21,287.21,0,0,1,136.87-34.53c157.28,0,285.23,126.19,285.23,281.3S1474.53,1254.86,1317.26,1254.86Z"/><path class="cls-1" d="M1291.53,844.56c-72.14,0-122.24,57.87-122.24,129s50.1,129,122.24,129,130.82-57.88,130.82-129S1363.67,844.56,1291.53,844.56Z"/></g></svg>